<svg width="919" height="172" viewBox="0 0 919 172" fill="none" xmlns="http://www.w3.org/2000/svg">
<g clip-path="url(#clip0_233_10)">
<path d="M0 3.00977H126V27.0098H76V82.5098L68.07 91.3698L76 99.5098V170.51L74.5 172.01H50.5L49 170.51V100.51C49 98.1698 57.28 92.6698 56.93 90.6498L49 82.5098V27.0098H0V3.00977Z" fill="#EDEADE"/>
<path d="M305.5 172.01C304.48 171.26 304.42 171.14 304.41 169.97C304.34 146.85 305.73 123.61 304.95 100.46C305.2 96.3701 309.89 94.6101 311.93 91.3801L304.95 81.5701L304.26 3.20007C304.26 3.20007 306.14 3.09007 307.46 2.97007C327.71 1.06007 372.87 1.45007 390.97 9.56007C431.63 27.7601 430.32 90.1101 387.99 104.54L428.01 172.02H399.01L360.51 109.02H331.01V170.52L329.51 172.02H305.51L305.5 172.01ZM368.5 27.0101C357.02 25.5601 342.97 26.0901 331 27.0101V87.0101H364.5C366.58 87.0101 375.63 84.4801 377.99 83.5001C397.94 75.2301 398.66 39.5701 379.05 30.4601C376.95 29.4901 370.53 27.2601 368.5 27.0101Z" fill="#EDEADE"/>
<path d="M721 91.0098C723.32 91.5698 722.65 90.5798 723.29 89.7498C745.49 61.2198 766.06 31.3698 788.5 3.00977H817L753.99 91.5298L826 172.01H794.5L724.01 94.4998L721 93.0098V172.01H695V99.5098L702.93 91.3698L695 82.5098V3.00977H720.5L721.78 4.50977C721.81 4.91977 721 5.25977 721 5.50977V91.0098Z" fill="#EDEADE"/>
<path d="M483 172.01L513.93 99.69L524.97 94.45L521.17 82.78L555.13 3.64L558.49 0L594.49 85.11L590.03 94.52L601.89 100.62L632 172.01H605.5L557.5 59.03L510 172.01H483Z" fill="#EDEADE"/>
<path d="M220 3.00977V83.5098C220 84.1198 213.73 89.1298 213.07 90.6498C212.73 92.6098 220 97.6498 220 98.5098V172.01H194V99.5098L201.93 91.3698L194 82.5098V3.00977H220Z" fill="#EDEADE"/>
<path d="M919 3.00977V82.5098L911.07 90.6498L919 99.5098V172.01H893V99.5098L900.93 91.3698L893 82.5098V3.00977H919Z" fill="#EDEADE"/>
</g>
<defs>
<clipPath id="clip0_233_10">
<rect width="919" height="172.01" fill="white"/>
</clipPath>
</defs>
</svg>
