<svg width="3075" height="53" viewBox="0 0 3075 53" fill="none" xmlns="http://www.w3.org/2000/svg">
<path d="M1537.05 24.1512C1538.01 22.8759 1539.53 22.0507 1541.25 22.0506L1549.65 22.0506C1552.55 22.0506 1554.9 24.4012 1554.9 27.3006L1554.9 42.0018C1554.9 44.9012 1552.55 47.2518 1549.65 47.2518L1541.25 47.2518C1539.53 47.2518 1538.01 46.4258 1537.05 45.1503L1537.05 52.5018L3074.3 52.502L3074.3 0L1537.05 -0.000134391L1537.05 24.1512ZM3047 22.0508C3049.9 22.0508 3052.25 24.4014 3052.25 27.3008L3052.25 42.002C3052.25 44.9014 3049.9 47.252 3047 47.252L3038.6 47.252C3035.7 47.2518 3033.35 44.9013 3033.35 42.0019L3033.35 27.3008C3033.35 24.4014 3035.7 22.0509 3038.6 22.0508L3047 22.0508ZM3014.45 22.0508C3017.35 22.0509 3019.7 24.4014 3019.7 27.3008L3019.7 42.0019C3019.7 44.9013 3017.35 47.2519 3014.45 47.2519L3006.05 47.2519C3003.15 47.2519 3000.8 44.9014 3000.8 42.0019L3000.8 27.3008C3000.8 24.4014 3003.15 22.0508 3006.05 22.0508L3014.45 22.0508ZM2981.9 22.0508C2984.8 22.0508 2987.15 24.4013 2987.15 27.3008L2987.15 42.0019C2987.15 44.9014 2984.8 47.2519 2981.9 47.2519L2973.5 47.2519C2970.6 47.2519 2968.25 44.9014 2968.25 42.0019L2968.25 27.3008C2968.25 24.4013 2970.6 22.0508 2973.5 22.0508L2981.9 22.0508ZM2949.35 22.0508C2952.25 22.0508 2954.6 24.4013 2954.6 27.3008L2954.6 42.0019C2954.6 44.9014 2952.25 47.2519 2949.35 47.2519L2940.95 47.2519C2938.05 47.2518 2935.7 44.9013 2935.7 42.0019L2935.7 27.3008C2935.7 24.4014 2938.05 22.0509 2940.95 22.0508L2949.35 22.0508ZM2916.8 22.0508C2919.7 22.0509 2922.05 24.4014 2922.05 27.3008L2922.05 42.0019C2922.05 44.9013 2919.7 47.2519 2916.8 47.2519L2908.4 47.2519C2905.5 47.2519 2903.15 44.9014 2903.15 42.0019L2903.15 27.3008C2903.15 24.4013 2905.5 22.0508 2908.4 22.0508L2916.8 22.0508ZM2884.25 22.0508C2887.14 22.051 2889.49 24.4015 2889.5 27.3008L2889.5 42.0019C2889.49 44.9012 2887.14 47.2517 2884.25 47.2519L2875.84 47.2519C2872.95 47.2519 2870.59 44.9014 2870.59 42.0019L2870.59 27.3008C2870.59 24.4013 2872.95 22.0508 2875.84 22.0508L2884.25 22.0508ZM2851.69 22.0508C2854.59 22.0508 2856.94 24.4013 2856.94 27.3008L2856.94 42.0019C2856.94 44.9014 2854.59 47.2519 2851.69 47.2519L2843.29 47.2519C2840.39 47.2518 2838.04 44.9013 2838.04 42.0019L2838.04 27.3008C2838.04 24.4014 2840.39 22.0509 2843.29 22.0508L2851.69 22.0508ZM2819.14 22.0508C2822.04 22.0508 2824.39 24.4014 2824.39 27.3008L2824.39 42.0019C2824.39 44.9013 2822.04 47.2519 2819.14 47.2519L2810.74 47.2519C2807.84 47.2519 2805.49 44.9014 2805.49 42.0019L2805.49 27.3008C2805.49 24.4013 2807.84 22.0508 2810.74 22.0508L2819.14 22.0508ZM2786.59 22.0508C2789.49 22.051 2791.84 24.4015 2791.84 27.3008L2791.84 42.0019C2791.84 44.9012 2789.49 47.2517 2786.59 47.2519L2778.19 47.2519C2775.29 47.2519 2772.94 44.9014 2772.94 42.0019L2772.94 27.3008C2772.94 24.4013 2775.29 22.0508 2778.19 22.0508L2786.59 22.0508ZM2754.04 22.0508C2756.94 22.0508 2759.29 24.4013 2759.29 27.3008L2759.29 42.0019C2759.29 44.9014 2756.94 47.2519 2754.04 47.2519L2745.64 47.2519C2742.74 47.2518 2740.39 44.9013 2740.39 42.0019L2740.39 27.3008C2740.39 24.4014 2742.74 22.0509 2745.64 22.0508L2754.04 22.0508ZM2721.49 22.0508C2724.39 22.0508 2726.74 24.4014 2726.74 27.3008L2726.74 42.0019C2726.74 44.9013 2724.39 47.2518 2721.49 47.2519L2713.09 47.2519C2710.19 47.2519 2707.84 44.9014 2707.84 42.0019L2707.84 27.3007C2707.84 24.4013 2710.19 22.0507 2713.09 22.0507L2721.49 22.0508ZM2688.94 22.0507C2691.84 22.051 2694.19 24.4015 2694.19 27.3007L2694.19 42.0019C2694.19 44.9012 2691.84 47.2517 2688.94 47.2519L2680.54 47.2519C2677.64 47.2519 2675.29 44.9014 2675.29 42.0019L2675.29 27.3007C2675.29 24.4013 2677.64 22.0507 2680.54 22.0507L2688.94 22.0507ZM2656.39 22.0507C2659.29 22.0507 2661.64 24.4013 2661.64 27.3007L2661.64 42.0019C2661.64 44.9014 2659.29 47.2519 2656.39 47.2519L2647.99 47.2519C2645.09 47.2518 2642.74 44.9013 2642.74 42.0019L2642.74 27.3007C2642.74 24.4014 2645.09 22.0509 2647.99 22.0507L2656.39 22.0507ZM2623.84 22.0507C2626.74 22.0508 2629.09 24.4013 2629.09 27.3007L2629.09 42.0019C2629.09 44.9013 2626.74 47.2519 2623.84 47.2519L2615.44 47.2519C2612.54 47.2519 2610.19 44.9013 2610.19 42.0019L2610.19 27.3007C2610.19 24.4013 2612.54 22.0507 2615.44 22.0507L2623.84 22.0507ZM2591.29 22.0507C2594.18 22.051 2596.53 24.4014 2596.54 27.3007L2596.54 42.0019C2596.53 44.9012 2594.18 47.2517 2591.29 47.2519L2582.88 47.2519C2579.99 47.2519 2577.63 44.9013 2577.63 42.0019L2577.63 27.3007C2577.63 24.4013 2579.99 22.0507 2582.88 22.0507L2591.29 22.0507ZM2558.73 22.0507C2561.63 22.0507 2563.98 24.4013 2563.98 27.3007L2563.98 42.0019C2563.98 44.9013 2561.63 47.2519 2558.73 47.2519L2550.33 47.2519C2547.43 47.2517 2545.08 44.9012 2545.08 42.0019L2545.08 27.3007C2545.08 24.4014 2547.43 22.0509 2550.33 22.0507L2558.73 22.0507ZM2526.18 22.0507C2529.08 22.0508 2531.43 24.4013 2531.43 27.3007L2531.43 42.0019C2531.43 44.9013 2529.08 47.2518 2526.18 47.2519L2517.78 47.2519C2514.88 47.2519 2512.53 44.9013 2512.53 42.0019L2512.53 27.3007C2512.53 24.4013 2514.88 22.0507 2517.78 22.0507L2526.18 22.0507ZM2493.63 22.0507C2496.53 22.051 2498.88 24.4014 2498.88 27.3007L2498.88 42.0019C2498.88 44.9012 2496.53 47.2517 2493.63 47.2519L2485.23 47.2519C2482.33 47.2519 2479.98 44.9013 2479.98 42.0019L2479.98 27.3007C2479.98 24.4013 2482.33 22.0507 2485.23 22.0507L2493.63 22.0507ZM2461.08 22.0507C2463.98 22.0507 2466.33 24.4013 2466.33 27.3007L2466.33 42.0019C2466.33 44.9013 2463.98 47.2519 2461.08 47.2519L2452.68 47.2519C2449.78 47.2517 2447.43 44.9012 2447.43 42.0019L2447.43 27.3007C2447.43 24.4014 2449.78 22.0509 2452.68 22.0507L2461.08 22.0507ZM2428.53 22.0507C2431.43 22.0508 2433.78 24.4013 2433.78 27.3007L2433.78 42.0019C2433.78 44.9013 2431.43 47.2519 2428.53 47.2519L2420.13 47.2519C2417.23 47.2519 2414.88 44.9013 2414.88 42.0019L2414.88 27.3007C2414.88 24.4013 2417.23 22.0508 2420.13 22.0507L2428.53 22.0507ZM2395.98 22.0507C2398.88 22.0509 2401.23 24.4014 2401.23 27.3007L2401.23 42.0019C2401.23 44.9012 2398.88 47.2517 2395.98 47.2519L2387.58 47.2519C2384.68 47.2519 2382.33 44.9013 2382.33 42.0019L2382.33 27.3007C2382.33 24.4013 2384.68 22.0507 2387.58 22.0507L2395.98 22.0507ZM2363.43 22.0507C2366.33 22.0507 2368.68 24.4013 2368.68 27.3007L2368.68 42.0019C2368.68 44.9013 2366.33 47.2519 2363.43 47.2519L2355.03 47.2519C2352.13 47.2517 2349.78 44.9012 2349.78 42.0019L2349.78 27.3007C2349.78 24.4014 2352.13 22.0509 2355.03 22.0507L2363.43 22.0507ZM2330.88 22.0507C2333.78 22.0508 2336.13 24.4013 2336.13 27.3007L2336.13 42.0019C2336.13 44.9013 2333.78 47.2518 2330.88 47.2519L2322.48 47.2519C2319.58 47.2519 2317.23 44.9013 2317.23 42.0019L2317.23 27.3007C2317.23 24.4013 2319.58 22.0507 2322.48 22.0507L2330.88 22.0507ZM2298.33 22.0507C2301.22 22.0509 2303.58 24.4014 2303.58 27.3007L2303.58 42.0019C2303.58 44.9012 2301.22 47.2517 2298.33 47.2519L2289.92 47.2519C2287.03 47.2519 2284.67 44.9013 2284.67 42.0019L2284.67 27.3007C2284.67 24.4013 2287.03 22.0507 2289.92 22.0507L2298.33 22.0507ZM2265.77 22.0507C2268.67 22.0507 2271.02 24.4013 2271.02 27.3007L2271.02 42.0019C2271.02 44.9013 2268.67 47.2519 2265.77 47.2519L2257.37 47.2519C2254.47 47.2517 2252.12 44.9012 2252.12 42.0019L2252.12 27.3007C2252.12 24.4014 2254.47 22.0509 2257.37 22.0507L2265.77 22.0507ZM2233.22 22.0507C2236.12 22.0507 2238.47 24.4013 2238.47 27.3007L2238.47 42.0019C2238.47 44.9013 2236.12 47.2518 2233.22 47.2519L2224.82 47.2519C2221.92 47.2518 2219.57 44.9013 2219.57 42.0019L2219.57 27.3007C2219.57 24.4013 2221.92 22.0507 2224.82 22.0507L2233.22 22.0507ZM2200.67 22.0507C2203.57 22.0509 2205.92 24.4014 2205.92 27.3007L2205.92 42.0019C2205.92 44.9012 2203.57 47.2516 2200.67 47.2519L2192.27 47.2519C2189.37 47.2519 2187.02 44.9013 2187.02 42.0019L2187.02 27.3007C2187.02 24.4012 2189.37 22.0507 2192.27 22.0507L2200.67 22.0507ZM2168.12 22.0507C2171.02 22.0507 2173.37 24.4012 2173.37 27.3007L2173.37 42.0019C2173.37 44.9013 2171.02 47.2519 2168.12 47.2519L2159.72 47.2519C2156.82 47.2517 2154.47 44.9012 2154.47 42.0019L2154.47 27.3007C2154.47 24.4014 2156.82 22.0509 2159.72 22.0507L2168.12 22.0507ZM2135.57 22.0507C2138.47 22.0507 2140.82 24.4012 2140.82 27.3007L2140.82 42.0019C2140.82 44.9013 2138.47 47.2519 2135.57 47.2519L2127.17 47.2519C2124.27 47.2518 2121.92 44.9012 2121.92 42.0019L2121.92 27.3007C2121.92 24.4013 2124.27 22.0508 2127.17 22.0507L2135.57 22.0507ZM2103.02 22.0507C2105.92 22.0509 2108.27 24.4013 2108.27 27.3007L2108.27 42.0019C2108.27 44.9012 2105.92 47.2517 2103.02 47.2519L2094.62 47.2519C2091.72 47.2519 2089.37 44.9013 2089.37 42.0019L2089.37 27.3007C2089.37 24.4012 2091.72 22.0507 2094.62 22.0507L2103.02 22.0507ZM2070.47 22.0507C2073.37 22.0507 2075.72 24.4012 2075.72 27.3007L2075.72 42.0019C2075.72 44.9013 2073.37 47.2519 2070.47 47.2519L2062.07 47.2519C2059.17 47.2516 2056.82 44.9011 2056.82 42.0019L2056.82 27.3007C2056.82 24.4014 2059.17 22.0509 2062.07 22.0507L2070.47 22.0507ZM2037.92 22.0507C2040.82 22.0507 2043.17 24.4012 2043.17 27.3007L2043.17 42.0019C2043.17 44.9013 2040.82 47.2518 2037.92 47.2519L2029.52 47.2519C2026.62 47.2518 2024.27 44.9013 2024.27 42.0019L2024.27 27.3007C2024.27 24.4012 2026.62 22.0507 2029.52 22.0507L2037.92 22.0507ZM2005.37 22.0507C2008.26 22.0509 2010.62 24.4014 2010.62 27.3007L2010.62 42.0019C2010.61 44.9011 2008.26 47.2516 2005.37 47.2519L1996.96 47.2519C1994.07 47.2519 1991.72 44.9013 1991.71 42.0019L1991.71 27.3007C1991.71 24.4012 1994.07 22.0507 1996.96 22.0507L2005.37 22.0507ZM1972.81 22.0507C1975.71 22.0507 1978.06 24.4012 1978.06 27.3007L1978.06 42.0019C1978.06 44.9013 1975.71 47.2519 1972.81 47.2519L1964.41 47.2519C1961.51 47.2516 1959.16 44.9011 1959.16 42.0019L1959.16 27.3007C1959.16 24.4014 1961.51 22.0509 1964.41 22.0507L1972.81 22.0507ZM1940.26 22.0507C1943.16 22.0507 1945.51 24.4012 1945.51 27.3007L1945.51 42.0019C1945.51 44.9012 1943.16 47.2518 1940.26 47.2519L1931.86 47.2519C1928.96 47.2518 1926.61 44.9012 1926.61 42.0019L1926.61 27.3007C1926.61 24.4012 1928.96 22.0507 1931.86 22.0507L1940.26 22.0507ZM1907.71 22.0507C1910.61 22.0509 1912.96 24.4014 1912.96 27.3007L1912.96 42.0019C1912.96 44.9011 1910.61 47.2516 1907.71 47.2519L1899.31 47.2519C1896.41 47.2519 1894.06 44.9013 1894.06 42.0018L1894.06 27.3007C1894.06 24.4012 1896.41 22.0507 1899.31 22.0507L1907.71 22.0507ZM1875.16 22.0507C1878.06 22.0507 1880.41 24.4012 1880.41 27.3007L1880.41 42.0018C1880.41 44.9013 1878.06 47.2518 1875.16 47.2518L1866.76 47.2518C1863.86 47.2516 1861.51 44.9011 1861.51 42.0018L1861.51 27.3007C1861.51 24.4013 1863.86 22.0509 1866.76 22.0507L1875.16 22.0507ZM1842.61 22.0507C1845.51 22.0507 1847.86 24.4012 1847.86 27.3007L1847.86 42.0018C1847.86 44.9012 1845.51 47.2518 1842.61 47.2518L1834.21 47.2518C1831.31 47.2517 1828.96 44.9012 1828.96 42.0018L1828.96 27.3007C1828.96 24.4013 1831.31 22.0508 1834.21 22.0507L1842.61 22.0507ZM1810.06 22.0507C1812.96 22.0508 1815.31 24.4013 1815.31 27.3007L1815.31 42.0018C1815.31 44.9011 1812.96 47.2517 1810.06 47.2518L1801.66 47.2518C1798.76 47.2518 1796.41 44.9012 1796.41 42.0018L1796.41 27.3007C1796.41 24.4012 1798.76 22.0507 1801.66 22.0507L1810.06 22.0507ZM1777.51 22.0507C1780.41 22.0507 1782.76 24.4012 1782.76 27.3007L1782.76 42.0018C1782.76 44.9012 1780.41 47.2518 1777.51 47.2518L1769.11 47.2518C1766.21 47.2516 1763.86 44.9011 1763.86 42.0018L1763.86 27.3007C1763.86 24.4013 1766.21 22.0509 1769.11 22.0507L1777.51 22.0507ZM1744.96 22.0507C1747.86 22.0507 1750.21 24.4012 1750.21 27.3007L1750.21 42.0018C1750.21 44.9012 1747.86 47.2518 1744.96 47.2518L1736.56 47.2518C1733.66 47.2518 1731.31 44.9012 1731.31 42.0018L1731.31 27.3007C1731.31 24.4012 1733.66 22.0507 1736.56 22.0507L1744.96 22.0507ZM1712.41 22.0507C1715.3 22.0508 1717.66 24.4013 1717.66 27.3007L1717.66 42.0018C1717.66 44.9011 1715.3 47.2517 1712.41 47.2518L1704 47.2518C1701.11 47.2518 1698.76 44.9012 1698.75 42.0018L1698.75 27.3007C1698.76 24.4012 1701.11 22.0507 1704 22.0507L1712.41 22.0507ZM1679.85 22.0507C1682.75 22.0507 1685.1 24.4012 1685.1 27.3007L1685.1 42.0018C1685.1 44.9012 1682.75 47.2518 1679.85 47.2518L1671.45 47.2518C1668.55 47.2516 1666.2 44.9011 1666.2 42.0018L1666.2 27.3007C1666.2 24.4013 1668.55 22.0509 1671.45 22.0507L1679.85 22.0507ZM1647.3 22.0507C1650.2 22.0507 1652.55 24.4012 1652.55 27.3007L1652.55 42.0018C1652.55 44.9012 1650.2 47.2518 1647.3 47.2518L1638.9 47.2518C1636 47.2518 1633.65 44.9012 1633.65 42.0018L1633.65 27.3007C1633.65 24.4012 1636 22.0507 1638.9 22.0507L1647.3 22.0507ZM1614.75 22.0507C1617.65 22.0508 1620 24.4013 1620 27.3007L1620 42.0018C1620 44.9011 1617.65 47.2517 1614.75 47.2518L1606.35 47.2518C1603.45 47.2518 1601.1 44.9012 1601.1 42.0018L1601.1 27.3007C1601.1 24.4012 1603.45 22.0507 1606.35 22.0507L1614.75 22.0507ZM1582.2 22.0507C1585.1 22.0507 1587.45 24.4012 1587.45 27.3007L1587.45 42.0018C1587.45 44.9012 1585.1 47.2518 1582.2 47.2518L1573.8 47.2518C1570.9 47.2518 1568.55 44.9012 1568.55 42.0018L1568.55 27.3006C1568.55 24.4012 1570.9 22.0506 1573.8 22.0507L1582.2 22.0507ZM1537.05 24.1512C1536.39 25.0286 1536 26.1189 1536 27.3006L1536 42.0018C1536 43.1833 1536.39 44.273 1537.05 45.1503L1537.05 24.1512Z" fill="black"/>
<path d="M1.0498 24.1512C2.00757 22.8759 3.53235 22.0507 5.25 22.0506L13.6504 22.0506C16.5499 22.0506 18.9003 24.4012 18.9004 27.3006L18.9004 42.0018C18.9001 44.9012 16.5498 47.2518 13.6504 47.2518L5.25 47.2518C3.5321 47.2518 2.00756 46.4258 1.0498 45.1503L1.0498 52.5018L1538.3 52.502L1538.3 0L1.0498 -0.000134391L1.0498 24.1512ZM1511 22.0508C1513.9 22.0508 1516.25 24.4014 1516.25 27.3008L1516.25 42.002C1516.25 44.9014 1513.9 47.252 1511 47.252L1502.6 47.252C1499.7 47.2518 1497.35 44.9013 1497.35 42.0019L1497.35 27.3008C1497.35 24.4014 1499.7 22.0509 1502.6 22.0508L1511 22.0508ZM1478.45 22.0508C1481.35 22.0509 1483.7 24.4014 1483.7 27.3008L1483.7 42.0019C1483.7 44.9013 1481.35 47.2519 1478.45 47.2519L1470.05 47.2519C1467.15 47.2519 1464.8 44.9014 1464.8 42.0019L1464.8 27.3008C1464.8 24.4014 1467.15 22.0508 1470.05 22.0508L1478.45 22.0508ZM1445.9 22.0508C1448.8 22.0508 1451.15 24.4013 1451.15 27.3008L1451.15 42.0019C1451.15 44.9014 1448.8 47.2519 1445.9 47.2519L1437.5 47.2519C1434.6 47.2519 1432.25 44.9014 1432.25 42.0019L1432.25 27.3008C1432.25 24.4013 1434.6 22.0508 1437.5 22.0508L1445.9 22.0508ZM1413.35 22.0508C1416.25 22.0508 1418.6 24.4013 1418.6 27.3008L1418.6 42.0019C1418.6 44.9014 1416.25 47.2519 1413.35 47.2519L1404.95 47.2519C1402.05 47.2518 1399.7 44.9013 1399.7 42.0019L1399.7 27.3008C1399.7 24.4014 1402.05 22.0509 1404.95 22.0508L1413.35 22.0508ZM1380.8 22.0508C1383.7 22.0509 1386.05 24.4014 1386.05 27.3008L1386.05 42.0019C1386.05 44.9013 1383.7 47.2519 1380.8 47.2519L1372.4 47.2519C1369.5 47.2519 1367.15 44.9014 1367.15 42.0019L1367.15 27.3008C1367.15 24.4013 1369.5 22.0508 1372.4 22.0508L1380.8 22.0508ZM1348.25 22.0508C1351.14 22.051 1353.49 24.4015 1353.5 27.3008L1353.5 42.0019C1353.49 44.9012 1351.14 47.2517 1348.25 47.2519L1339.84 47.2519C1336.95 47.2519 1334.59 44.9014 1334.59 42.0019L1334.59 27.3008C1334.59 24.4013 1336.95 22.0508 1339.84 22.0508L1348.25 22.0508ZM1315.69 22.0508C1318.59 22.0508 1320.94 24.4013 1320.94 27.3008L1320.94 42.0019C1320.94 44.9014 1318.59 47.2519 1315.69 47.2519L1307.29 47.2519C1304.39 47.2518 1302.04 44.9013 1302.04 42.0019L1302.04 27.3008C1302.04 24.4014 1304.39 22.0509 1307.29 22.0508L1315.69 22.0508ZM1283.14 22.0508C1286.04 22.0508 1288.39 24.4014 1288.39 27.3008L1288.39 42.0019C1288.39 44.9013 1286.04 47.2519 1283.14 47.2519L1274.74 47.2519C1271.84 47.2519 1269.49 44.9014 1269.49 42.0019L1269.49 27.3008C1269.49 24.4013 1271.84 22.0508 1274.74 22.0508L1283.14 22.0508ZM1250.59 22.0508C1253.49 22.051 1255.84 24.4015 1255.84 27.3008L1255.84 42.0019C1255.84 44.9012 1253.49 47.2517 1250.59 47.2519L1242.19 47.2519C1239.29 47.2519 1236.94 44.9014 1236.94 42.0019L1236.94 27.3008C1236.94 24.4013 1239.29 22.0508 1242.19 22.0508L1250.59 22.0508ZM1218.04 22.0508C1220.94 22.0508 1223.29 24.4013 1223.29 27.3008L1223.29 42.0019C1223.29 44.9014 1220.94 47.2519 1218.04 47.2519L1209.64 47.2519C1206.74 47.2518 1204.39 44.9013 1204.39 42.0019L1204.39 27.3008C1204.39 24.4014 1206.74 22.0509 1209.64 22.0508L1218.04 22.0508ZM1185.49 22.0508C1188.39 22.0508 1190.74 24.4014 1190.74 27.3008L1190.74 42.0019C1190.74 44.9013 1188.39 47.2518 1185.49 47.2519L1177.09 47.2519C1174.19 47.2519 1171.84 44.9014 1171.84 42.0019L1171.84 27.3007C1171.84 24.4013 1174.19 22.0507 1177.09 22.0507L1185.49 22.0508ZM1152.94 22.0507C1155.84 22.051 1158.19 24.4015 1158.19 27.3007L1158.19 42.0019C1158.19 44.9012 1155.84 47.2517 1152.94 47.2519L1144.54 47.2519C1141.64 47.2519 1139.29 44.9014 1139.29 42.0019L1139.29 27.3007C1139.29 24.4013 1141.64 22.0507 1144.54 22.0507L1152.94 22.0507ZM1120.39 22.0507C1123.29 22.0507 1125.64 24.4013 1125.64 27.3007L1125.64 42.0019C1125.64 44.9014 1123.29 47.2519 1120.39 47.2519L1111.99 47.2519C1109.09 47.2518 1106.74 44.9013 1106.74 42.0019L1106.74 27.3007C1106.74 24.4014 1109.09 22.0509 1111.99 22.0507L1120.39 22.0507ZM1087.84 22.0507C1090.74 22.0508 1093.09 24.4013 1093.09 27.3007L1093.09 42.0019C1093.09 44.9013 1090.74 47.2519 1087.84 47.2519L1079.44 47.2519C1076.54 47.2519 1074.19 44.9013 1074.19 42.0019L1074.19 27.3007C1074.19 24.4013 1076.54 22.0507 1079.44 22.0507L1087.84 22.0507ZM1055.29 22.0507C1058.18 22.051 1060.53 24.4014 1060.54 27.3007L1060.54 42.0019C1060.53 44.9012 1058.18 47.2517 1055.29 47.2519L1046.88 47.2519C1043.99 47.2519 1041.63 44.9013 1041.63 42.0019L1041.63 27.3007C1041.63 24.4013 1043.99 22.0507 1046.88 22.0507L1055.29 22.0507ZM1022.73 22.0507C1025.63 22.0507 1027.98 24.4013 1027.98 27.3007L1027.98 42.0019C1027.98 44.9013 1025.63 47.2519 1022.73 47.2519L1014.33 47.2519C1011.43 47.2517 1009.08 44.9012 1009.08 42.0019L1009.08 27.3007C1009.08 24.4014 1011.43 22.0509 1014.33 22.0507L1022.73 22.0507ZM990.183 22.0507C993.082 22.0508 995.432 24.4013 995.433 27.3007L995.433 42.0019C995.432 44.9013 993.082 47.2518 990.183 47.2519L981.782 47.2519C978.883 47.2519 976.532 44.9013 976.532 42.0019L976.532 27.3007C976.532 24.4013 978.883 22.0507 981.782 22.0507L990.183 22.0507ZM957.632 22.0507C960.531 22.051 962.882 24.4014 962.882 27.3007L962.882 42.0019C962.882 44.9012 960.531 47.2517 957.632 47.2519L949.231 47.2519C946.332 47.2519 943.982 44.9013 943.981 42.0019L943.981 27.3007C943.982 24.4013 946.332 22.0507 949.231 22.0507L957.632 22.0507ZM925.08 22.0507C927.98 22.0507 930.33 24.4013 930.33 27.3007L930.33 42.0019C930.33 44.9013 927.98 47.2519 925.08 47.2519L916.68 47.2519C913.78 47.2517 911.43 44.9012 911.43 42.0019L911.43 27.3007C911.43 24.4014 913.78 22.0509 916.68 22.0507L925.08 22.0507ZM892.53 22.0507C895.43 22.0508 897.78 24.4013 897.78 27.3007L897.78 42.0019C897.78 44.9013 895.43 47.2519 892.53 47.2519L884.13 47.2519C881.23 47.2519 878.88 44.9013 878.88 42.0019L878.88 27.3007C878.88 24.4013 881.23 22.0508 884.13 22.0507L892.53 22.0507ZM859.979 22.0507C862.879 22.0509 865.229 24.4014 865.229 27.3007L865.229 42.0019C865.229 44.9012 862.879 47.2517 859.979 47.2519L851.579 47.2519C848.68 47.2519 846.329 44.9013 846.329 42.0019L846.329 27.3007C846.329 24.4013 848.68 22.0507 851.579 22.0507L859.979 22.0507ZM827.427 22.0507C830.326 22.0507 832.677 24.4013 832.677 27.3007L832.677 42.0019C832.677 44.9013 830.326 47.2519 827.427 47.2519L819.026 47.2519C816.127 47.2517 813.777 44.9012 813.776 42.0019L813.776 27.3007C813.777 24.4014 816.127 22.0509 819.026 22.0507L827.427 22.0507ZM794.876 22.0507C797.775 22.0508 800.126 24.4013 800.126 27.3007L800.126 42.0019C800.126 44.9013 797.775 47.2518 794.876 47.2519L786.476 47.2519C783.576 47.2519 781.226 44.9013 781.226 42.0019L781.226 27.3007C781.226 24.4013 783.576 22.0507 786.476 22.0507L794.876 22.0507ZM762.325 22.0507C765.224 22.0509 767.575 24.4014 767.575 27.3007L767.575 42.0019C767.575 44.9012 765.224 47.2517 762.325 47.2519L753.925 47.2519C751.025 47.2519 748.675 44.9013 748.675 42.0019L748.675 27.3007C748.675 24.4013 751.025 22.0507 753.925 22.0507L762.325 22.0507ZM729.773 22.0507C732.673 22.0507 735.023 24.4013 735.023 27.3007L735.023 42.0019C735.023 44.9013 732.673 47.2519 729.773 47.2519L721.373 47.2519C718.474 47.2517 716.123 44.9012 716.123 42.0019L716.123 27.3007C716.123 24.4014 718.474 22.0509 721.373 22.0507L729.773 22.0507ZM697.223 22.0507C700.122 22.0507 702.472 24.4013 702.473 27.3007L702.473 42.0019C702.472 44.9013 700.122 47.2518 697.223 47.2519L688.822 47.2519C685.923 47.2518 683.572 44.9013 683.572 42.0019L683.572 27.3007C683.572 24.4013 685.923 22.0507 688.822 22.0507L697.223 22.0507ZM664.672 22.0507C667.571 22.0509 669.922 24.4014 669.922 27.3007L669.922 42.0019C669.922 44.9012 667.571 47.2516 664.672 47.2519L656.271 47.2519C653.372 47.2519 651.022 44.9013 651.021 42.0019L651.021 27.3007C651.022 24.4012 653.372 22.0507 656.271 22.0507L664.672 22.0507ZM632.12 22.0507C635.02 22.0507 637.37 24.4012 637.37 27.3007L637.37 42.0019C637.37 44.9013 635.02 47.2519 632.12 47.2519L623.72 47.2519C620.82 47.2517 618.47 44.9012 618.47 42.0019L618.47 27.3007C618.47 24.4014 620.82 22.0509 623.72 22.0507L632.12 22.0507ZM599.57 22.0507C602.47 22.0507 604.82 24.4012 604.82 27.3007L604.82 42.0019C604.82 44.9013 602.47 47.2519 599.57 47.2519L591.17 47.2519C588.271 47.2518 585.92 44.9012 585.92 42.0019L585.92 27.3007C585.92 24.4013 588.271 22.0508 591.17 22.0507L599.57 22.0507ZM567.02 22.0507C569.919 22.0509 572.269 24.4013 572.27 27.3007L572.27 42.0019C572.269 44.9012 569.919 47.2517 567.02 47.2519L558.619 47.2519C555.72 47.2519 553.369 44.9013 553.369 42.0019L553.369 27.3007C553.369 24.4012 555.72 22.0507 558.619 22.0507L567.02 22.0507ZM534.468 22.0507C537.367 22.0507 539.718 24.4012 539.718 27.3007L539.718 42.0019C539.718 44.9013 537.367 47.2519 534.468 47.2519L526.067 47.2519C523.168 47.2516 520.818 44.9011 520.817 42.0019L520.817 27.3007C520.818 24.4014 523.168 22.0509 526.067 22.0507L534.468 22.0507ZM501.916 22.0507C504.815 22.0507 507.166 24.4012 507.166 27.3007L507.166 42.0019C507.166 44.9013 504.815 47.2518 501.916 47.2519L493.516 47.2519C490.616 47.2518 488.266 44.9013 488.266 42.0019L488.266 27.3007C488.266 24.4012 490.616 22.0507 493.516 22.0507L501.916 22.0507ZM469.365 22.0507C472.265 22.0509 474.615 24.4014 474.615 27.3007L474.615 42.0019C474.615 44.9011 472.265 47.2516 469.365 47.2519L460.965 47.2519C458.065 47.2519 455.715 44.9013 455.715 42.0019L455.715 27.3007C455.715 24.4012 458.065 22.0507 460.965 22.0507L469.365 22.0507ZM436.813 22.0507C439.713 22.0507 442.063 24.4012 442.063 27.3007L442.063 42.0019C442.063 44.9013 439.713 47.2519 436.813 47.2519L428.413 47.2519C425.514 47.2516 423.163 44.9011 423.163 42.0019L423.163 27.3007C423.163 24.4014 425.514 22.0509 428.413 22.0507L436.813 22.0507ZM404.263 22.0507C407.162 22.0507 409.513 24.4012 409.513 27.3007L409.513 42.0019C409.512 44.9012 407.162 47.2518 404.263 47.2519L395.862 47.2519C392.963 47.2518 390.613 44.9012 390.612 42.0019L390.612 27.3007C390.612 24.4012 392.963 22.0507 395.862 22.0507L404.263 22.0507ZM371.712 22.0507C374.611 22.0509 376.962 24.4014 376.962 27.3007L376.962 42.0019C376.962 44.9011 374.611 47.2516 371.712 47.2519L363.312 47.2519C360.412 47.2519 358.062 44.9013 358.062 42.0018L358.062 27.3007C358.062 24.4012 360.412 22.0507 363.312 22.0507L371.712 22.0507ZM339.161 22.0507C342.061 22.0507 344.411 24.4012 344.411 27.3007L344.411 42.0018C344.411 44.9013 342.061 47.2518 339.161 47.2518L330.761 47.2518C327.861 47.2516 325.511 44.9011 325.511 42.0018L325.511 27.3007C325.511 24.4013 327.861 22.0509 330.761 22.0507L339.161 22.0507ZM306.61 22.0507C309.51 22.0507 311.86 24.4012 311.86 27.3007L311.86 42.0018C311.86 44.9012 309.51 47.2518 306.61 47.2518L298.21 47.2518C295.311 47.2517 292.96 44.9012 292.96 42.0018L292.96 27.3007C292.96 24.4013 295.311 22.0508 298.21 22.0507L306.61 22.0507ZM274.06 22.0507C276.959 22.0508 279.309 24.4013 279.31 27.3007L279.31 42.0018C279.309 44.9011 276.959 47.2517 274.06 47.2518L265.659 47.2518C262.76 47.2518 260.409 44.9012 260.409 42.0018L260.409 27.3007C260.409 24.4012 262.76 22.0507 265.659 22.0507L274.06 22.0507ZM241.508 22.0507C244.407 22.0507 246.758 24.4012 246.758 27.3007L246.758 42.0018C246.758 44.9012 244.407 47.2518 241.508 47.2518L233.107 47.2518C230.208 47.2516 227.858 44.9011 227.857 42.0018L227.857 27.3007C227.858 24.4013 230.208 22.0509 233.107 22.0507L241.508 22.0507ZM208.956 22.0507C211.856 22.0507 214.206 24.4012 214.206 27.3007L214.206 42.0018C214.206 44.9012 211.855 47.2518 208.956 47.2518L200.556 47.2518C197.656 47.2518 195.306 44.9012 195.306 42.0018L195.306 27.3007C195.306 24.4012 197.656 22.0507 200.556 22.0507L208.956 22.0507ZM176.405 22.0507C179.305 22.0508 181.655 24.4013 181.655 27.3007L181.655 42.0018C181.655 44.9011 179.305 47.2517 176.405 47.2518L168.005 47.2518C165.105 47.2518 162.755 44.9012 162.755 42.0018L162.755 27.3007C162.755 24.4012 165.105 22.0507 168.005 22.0507L176.405 22.0507ZM143.854 22.0507C146.753 22.0507 149.103 24.4012 149.104 27.3007L149.104 42.0018C149.103 44.9012 146.753 47.2518 143.854 47.2518L135.453 47.2518C132.554 47.2516 130.203 44.9011 130.203 42.0018L130.203 27.3007C130.203 24.4013 132.554 22.0509 135.453 22.0507L143.854 22.0507ZM111.303 22.0507C114.202 22.0507 116.553 24.4012 116.553 27.3007L116.553 42.0018C116.552 44.9012 114.202 47.2518 111.303 47.2518L102.902 47.2518C100.003 47.2518 97.6526 44.9012 97.6523 42.0018L97.6523 27.3007C97.6525 24.4012 100.003 22.0507 102.902 22.0507L111.303 22.0507ZM78.7529 22.0507C81.6523 22.0508 84.0028 24.4013 84.0029 27.3007L84.0029 42.0018C84.0027 44.9011 81.6522 47.2517 78.7529 47.2518L70.3525 47.2518C67.4531 47.2518 65.1028 44.9012 65.1025 42.0018L65.1025 27.3007C65.1027 24.4012 67.453 22.0507 70.3525 22.0507L78.7529 22.0507ZM46.2012 22.0507C49.1007 22.0507 51.452 24.4012 51.4521 27.3007L51.4521 42.0018C51.4519 44.9012 49.1006 47.2518 46.2012 47.2518L37.8018 47.2518C34.9023 47.2518 32.551 44.9012 32.5508 42.0018L32.5508 27.3006C32.5509 24.4012 34.9022 22.0506 37.8018 22.0507L46.2012 22.0507ZM1.0498 24.1512C0.390867 25.0286 -2.2834e-06 26.1189 -2.38671e-06 27.3006L-3.67193e-06 42.0018C0.000118295 43.1833 0.391109 44.273 1.0498 45.1503L1.0498 24.1512Z" fill="black"/>
</svg>
