<svg width="59" height="32" viewBox="0 0 59 32" fill="none" xmlns="http://www.w3.org/2000/svg">
<path d="M43 5.50273C47.8836 3.6592 50.7195 2.42895 52.2669 1.44253C52.6552 1.195 53.0377 0.951149 53.3623 1.00843C53.6868 1.06571 54.4595 4.2614 55.3598 5.98856C55.8736 7.09135 55.3908 6.41571 57 8.99998C57.5892 9.99934 57.7167 10.3651 58.2344 11.1114" stroke="#363636" stroke-width="0.75" stroke-linecap="round"/>
<path d="M53.2709 1.55957C53.2709 2.16332 53.1372 3.37892 52.8667 4.22377C52.5566 5.19254 52.0594 6.41388 51.3503 8.10053C50.3334 10.5192 49.5572 12.3622 49.1551 13.4694C47.7067 17.4569 46.9255 18.3025 46.1829 19.3844C45.4234 20.491 42.8897 22.1438 41.2202 23.4708C39.8483 24.5614 38.554 25.2598 37.2705 26.0712C36.0919 26.8163 34.9761 27.2858 33.8263 27.7609C31.9294 28.5447 30.5189 28.6391 29.1665 28.9096C27.8784 29.1672 26.5358 29.3158 25.384 29.484C23.9081 29.6995 22.9538 29.721 21.9732 29.8892C20.6694 30.1128 19.4447 30.1262 17.8584 30.2944C15.7608 30.5167 14.1711 30.3957 12.7974 30.497C7.08004 30.5983 5.26879 30.734 3.00777 30.7675C2.15077 30.8009 1.88334 30.8677 1 30.9366" stroke="#363636" stroke-width="0.75" stroke-linecap="round"/>
</svg>